<?xml version="1.0" encoding="UTF-8"?>
<svg width="256" height="256" viewBox="0 0 256 256" fill="none" xmlns="http://www.w3.org/2000/svg" role="img" aria-label="FlowFlip Logo">
  <defs>
    <linearGradient id="g1" x1="0" y1="0" x2="1" y2="1">
      <stop offset="0%" stop-color="#7C5CFF"/>
      <stop offset="100%" stop-color="#6EE7FF"/>
    </linearGradient>
    <linearGradient id="g2" x1="0" y1="0" x2="1" y2="1">
      <stop offset="0%" stop-color="#FFFFFF" stop-opacity="0.9"/>
      <stop offset="100%" stop-color="#BDB7FF" stop-opacity="0.9"/>
    </linearGradient>
    <filter id="soft" x="-20%" y="-20%" width="140%" height="140%" color-interpolation-filters="sRGB">
      <feGaussianBlur stdDeviation="6"/>
    </filter>
  </defs>
  <!-- Dark coin backdrop -->
  <circle cx="128" cy="128" r="108" fill="#0F1229"/>
  <!-- Coin rim -->
  <circle cx="128" cy="128" r="96" fill="url(#g1)" opacity="0.25"/>
  <circle cx="128" cy="128" r="88" fill="#0B1020" stroke="url(#g1)" stroke-width="4"/>
  <!-- Flip arc trails -->
  <path d="M48 120c22-46 78-74 128-58" stroke="url(#g1)" stroke-width="10" stroke-linecap="round" opacity="0.9"/>
  <path d="M64 164c28 36 86 46 128 18" stroke="url(#g2)" stroke-width="8" stroke-linecap="round" opacity="0.8"/>
  <!-- Coin -->
  <g transform="translate(0,-6)">
    <circle cx="172" cy="112" r="28" fill="#121735" stroke="#6EE7FF" stroke-width="3"/>
    <circle cx="172" cy="112" r="20" fill="url(#g1)"/>
  </g>
  <!-- Stylized F monogram -->
  <g filter="url(#soft)">
    <path d="M102 88h52a6 6 0 0 1 0 12h-40v20h28a6 6 0 0 1 0 12h-28v40a8 8 0 0 1-16 0V96a8 8 0 0 1 8-8z" fill="#FFFFFF" opacity="0.9"/>
  </g>
  <path d="M102 88h52a6 6 0 0 1 0 12h-40v20h28a6 6 0 0 1 0 12h-28v40a8 8 0 0 1-16 0V96a8 8 0 0 1 8-8z" fill="#FFFFFF"/>
  <!-- Sparkle -->
  <g transform="translate(28,8)" opacity="0.9">
    <circle cx="60" cy="58" r="2.5" fill="#FFFFFF"/>
    <circle cx="56" cy="64" r="1.5" fill="#BBDFFF"/>
  </g>
  <!-- Subtle inner glow -->
  <circle cx="128" cy="128" r="84" fill="url(#g1)" opacity="0.06"/>
</svg>
